<?xml version="1.0" encoding="utf-8"?>
<!-- Generator: Adobe Illustrator 22.0.0, SVG Export Plug-In . SVG Version: 6.00 Build 0)  -->
<svg version="1.1" id="icon" xmlns="http://www.w3.org/2000/svg" xmlns:xlink="http://www.w3.org/1999/xlink" x="0px" y="0px"
	 viewBox="0 0 165 165" style="enable-background:new 0 0 165 165;" xml:space="preserve">
<style type="text/css">
	.st0{fill:none;stroke:#FFFFFF;stroke-width:9;stroke-miterlimit:10;}
	.st1{fill:#006699;}
	.st2{fill:#0066CC;}
</style>
<path id="margin" class="st0" d="M144.3,123.9l-56.9,32.9c-3,1.8-6.8,1.8-9.8,0l-56.9-32.9c-3-1.8-4.9-5-4.9-8.5V49.6
	c0-3.5,1.9-6.7,4.9-8.5L77.6,8.3c3-1.8,6.8-1.8,9.8,0l56.9,32.9c3,1.8,4.9,5,4.9,8.5v65.7C149.2,118.9,147.4,122.1,144.3,123.9z"/>
<path id="letter" class="st1" d="M54.9,112.5v-4.4c0-4.7,3.3-6.6,7.3-4.2l15.3,8.8c3,1.7,6.8,1.7,9.8,0l18.7-10.9
	c3-1.8,4.9-5,4.9-8.5l-0.1-21.6c0-3.5-1.9-6.7-4.9-8.4L87.4,52.5c-3-1.7-6.7-1.7-9.7,0l-10.2,5.8c-3.1,1.7-6.8,1.7-9.8-0.1L53.9,56
	c-4-2.4-3.9-6.2,0.1-8.5l23.6-13.6c3-1.8,6.8-1.7,9.8,0L122.1,54c3,1.8,4.9,5,4.9,8.5v40.2c0,3.5-1.9,6.7-4.9,8.5l-34.7,20
	c-3,1.7-6.7,1.7-9.8,0L59.8,121C56.8,119.3,54.9,116,54.9,112.5z"/>
<path id="light" class="st2" d="M122.1,54L87.4,33.9c-3-1.8-6.8-1.8-9.8,0L54,47.5c-4,2.3-4,6.1-0.1,8.5l3.7,2.2
	c3,1.8,6.8,1.8,9.8,0.1l10.2-5.8c3-1.7,6.7-1.7,9.7,0l18.6,10.7c1.5,0.9,2.7,2.1,3.6,3.6l16.1-9.3C124.8,56.1,123.6,54.9,122.1,54z"
	/>
</svg>
